PathFileType  4	(X/Y/Z) C:\Users\antoi\Documents\MyRepositories\mobilecap\ResultsAnalysis
DataRate	CameraRate	NumFrames	NumMarkers	Units	OrigDataRate	OrigDataStartFrame	OrigNumFrames
100.0	100.0	4	55	mm	100.0	201	800
Frame#	Time	r_knee			r_shank_antsup			r_ankle			r_calc			r_5meta			r_toe			L_knee			L_shank_antsup			L_ankle			L_calc			L_5meta			L_toe			r_mknee			r_mankle			L_mknee			L_mankle			r_sh2			r_sh3			r_sh4			L_sh2			L_sh3			r_thigh1			r_thigh2			r_thigh3			r_thigh4			r_thigh5			L_thigh1			L_thigh2			L_thigh3			L_thigh4			r.ASIS			r.PSIS			L.ASIS			L.PSIS			C7			R_Shoulder			L_Shoulder			R_Sternum			L_Sternum			R_humerus			R_elbow_med			R_elbow_lat			R_forearm			R_wrist_radius			R_wrist_ulna			L_humerus			L_elbow_med			L_elbow_lat			L_forearm			L_wrist_radius			L_wrist_ulna			R_HJC			L_HJC			R_HJC_reg			L_HJC_reg			
		X1	Y1	Z1	X2	Y2	Z2	X3	Y3	Z3	X4	Y4	Z4	X5	Y5	Z5	X6	Y6	Z6	X7	Y7	Z7	X8	Y8	Z8	X9	Y9	Z9	X10	Y10	Z10	X11	Y11	Z11	X12	Y12	Z12	X13	Y13	Z13	X14	Y14	Z14	X15	Y15	Z15	X16	Y16	Z16	X17	Y17	Z17	X18	Y18	Z18	X19	Y19	Z19	X20	Y20	Z20	X21	Y21	Z21	X22	Y22	Z22	X23	Y23	Z23	X24	Y24	Z24	X25	Y25	Z25	X26	Y26	Z26	X27	Y27	Z27	X28	Y28	Z28	X29	Y29	Z29	X30	Y30	Z30	X31	Y31	Z31	X32	Y32	Z32	X33	Y33	Z33	X34	Y34	Z34	X35	Y35	Z35	X36	Y36	Z36	X37	Y37	Z37	X38	Y38	Z38	X39	Y39	Z39	X40	Y40	Z40	X41	Y41	Z41	X42	Y42	Z42	X43	Y43	Z43	X44	Y44	Z44	X45	Y45	Z45	X46	Y46	Z46	X47	Y47	Z47	X48	Y48	Z48	X49	Y49	Z49	X50	Y50	Z50	X51	Y51	Z51	X52	Y52	Z52	X53	Y53	Z53	X54	Y54	Z54	X55	Y55	Z55	

201	2.00000000	-217.19655	607.21230	-670.67760	-208.02626	464.73561	-662.24929	-286.83401	103.61150	-629.40318	-346.89275	72.32156	-689.35998	-151.52995	40.25797	-599.12874	-113.57369	64.73810	-652.91773	-242.14962	608.47534	-1114.09569	-207.36720	415.99747	-1122.54736	-294.78105	116.16339	-1160.55991	-350.00552	74.68669	-1102.49230	-150.73651	31.79192	-1194.64837	-112.40650	65.39803	-1136.41220	-238.32572	587.36970	-789.49576	-253.76841	128.34195	-727.66662	-235.37132	580.27566	-993.36699	-252.01848	125.66723	-1068.86094	-217.96437	351.75484	-655.08406	-270.10721	472.78505	-621.47754	-284.59874	362.35514	-606.07298	-278.57157	434.99568	-1170.23986	-293.57772	315.89381	-1169.70044	-136.59171	895.60404	-677.73822	-140.44590	784.87198	-671.33302	-204.13594	763.91169	-657.54898	-247.95547	901.31536	-695.16251	-253.56792	783.09362	-676.52137	-142.00278	893.44918	-1091.69703	-159.82997	761.25525	-1102.78864	-247.39968	913.89076	-1099.05321	-266.09174	776.51411	-1113.40951	-70.74791	1170.81756	-762.53999	-262.96594	1205.24452	-829.77935	-106.24403	1163.22485	-1034.21664	-273.86197	1208.33149	-921.24324	-266.85360	1679.61307	-891.39641	-184.57535	1658.95626	-719.87307	-220.34160	1666.58626	-1068.00020	-106.84297	1629.11608	-873.47544	-110.51909	1630.96690	-924.34406	-188.02611	1392.41349	-636.46478	-269.84532	1277.92342	-671.57796	-262.87276	1303.04344	-603.31714	-186.21223	1110.07159	-550.88108	-158.74028	1017.69449	-539.20538	-193.22715	1019.06720	-521.34858	-198.48110	1374.26834	-1136.57821	-276.23560	1295.18446	-1086.76690	-263.28933	1294.90269	-1160.80338	-184.02514	1108.84118	-1207.10359	-154.47285	1032.35959	-1207.55150	-183.69943	1033.40600	-1228.27399	-154.92286	1077.30157	-788.90570	-185.28945	1076.92808	-984.03306	-146.21594	1081.22665	-795.90133	-167.60316	1087.28588	-975.43041	
202	2.01000000	-217.30243	607.15294	-670.74950	-208.04204	464.75298	-662.29502	-286.83770	103.55141	-629.40785	-346.89398	72.32331	-689.34894	-151.53923	40.21965	-599.12348	-113.57489	64.71815	-652.89322	-242.19084	608.46365	-1114.13078	-207.41626	416.01040	-1122.56284	-294.79830	116.16735	-1160.56799	-349.98656	74.70113	-1102.49328	-150.73349	31.78466	-1194.64601	-112.39038	65.37890	-1136.41084	-238.36922	587.37333	-789.53245	-253.78148	128.32237	-727.67079	-235.46624	580.31421	-993.40880	-252.01634	125.65456	-1068.83626	-217.95809	351.70594	-655.08553	-270.15863	472.79162	-621.48092	-284.61828	362.36539	-606.07718	-278.63250	434.97713	-1170.28594	-293.58755	315.87654	-1169.72504	-136.63357	895.37786	-677.82370	-140.45315	784.86443	-671.34836	-204.09297	763.82351	-657.55344	-247.97147	901.31978	-695.17008	-253.63932	783.11463	-676.51871	-142.00794	893.37100	-1091.61879	-159.82590	761.24219	-1102.79321	-247.37728	913.93451	-1099.16069	-266.06723	776.48742	-1113.44895	-70.73557	1170.76026	-762.55806	-262.94045	1205.24581	-829.78342	-106.22276	1163.18640	-1034.15620	-273.85653	1208.34563	-921.24840	-266.79670	1679.61752	-891.36316	-184.49590	1658.93937	-719.83275	-220.25947	1666.61413	-1067.99992	-106.77673	1629.11321	-873.47074	-110.46375	1630.94367	-924.34558	-187.91650	1392.38860	-636.46052	-269.73281	1277.89555	-671.81083	-262.87362	1303.04528	-603.39858	-186.12933	1110.06472	-550.93390	-158.60665	1017.70324	-539.23972	-193.10172	1019.07913	-521.30236	-198.43936	1374.27607	-1136.57008	-276.17913	1295.18749	-1086.80142	-263.23107	1294.91295	-1160.79705	-183.99773	1108.84869	-1207.11070	-154.45412	1032.37212	-1207.58251	-183.67675	1033.38874	-1228.27071	-154.94507	1077.27312	-788.89758	-185.30070	1076.91138	-984.02667	-146.20182	1081.20907	-795.90174	-167.62122	1087.29151	-975.37329	
203	2.02000000	-217.47724	607.05701	-670.87313	-208.05918	464.76212	-662.31888	-286.84548	103.50942	-629.44625	-346.88935	72.32532	-689.34315	-151.55916	40.17587	-599.10898	-113.57579	64.70553	-652.87843	-242.22399	608.45095	-1114.15861	-207.45787	416.02644	-1122.58658	-294.81339	116.15225	-1160.56918	-349.96226	74.70553	-1102.49364	-150.70539	31.74319	-1194.62933	-112.38426	65.37824	-1136.41276	-238.39070	587.37545	-789.54560	-253.76570	128.33189	-727.66369	-235.56432	580.30656	-993.44483	-252.01508	125.68901	-1068.83865	-217.94957	351.68539	-655.08533	-270.10964	472.72934	-621.52927	-284.63616	362.36805	-606.07946	-278.68819	434.97748	-1170.36101	-293.59836	315.87572	-1169.75006	-136.58034	895.32707	-677.94531	-140.44142	784.85149	-671.35506	-204.09239	763.79480	-657.58960	-247.99713	901.34400	-695.20973	-253.65372	783.10199	-676.50392	-142.04801	893.24971	-1091.47452	-159.81624	761.22109	-1102.78631	-247.38119	914.00453	-1099.32536	-266.05405	776.46188	-1113.46892	-70.72763	1170.70943	-762.57417	-262.90405	1205.24345	-829.79280	-106.27168	1163.21149	-1034.21315	-273.86731	1208.36935	-921.27527	-266.72904	1679.61735	-891.35530	-184.41287	1658.94089	-719.78558	-220.20964	1666.63594	-1068.01048	-106.69699	1629.10889	-873.45050	-110.41183	1630.93185	-924.33522	-187.80678	1392.36019	-636.51093	-269.67463	1277.88171	-671.85580	-262.87665	1303.02177	-603.42423	-186.04851	1110.04944	-550.96011	-158.45971	1017.73070	-539.26937	-192.96907	1019.05394	-521.34215	-198.39311	1374.28766	-1136.57031	-276.10983	1295.20229	-1086.84800	-263.17642	1294.94368	-1160.83944	-183.97069	1108.86225	-1207.12086	-154.43016	1032.39433	-1207.62332	-183.65023	1033.38571	-1228.28478	-154.95534	1077.24361	-788.95515	-185.34000	1076.93529	-984.07980	-146.18442	1081.16734	-795.91739	-167.69442	1087.30038	-975.40682	
204	2.03000000	-217.48240	607.07997	-670.86858	-208.07591	464.75849	-662.31342	-286.85080	103.54983	-629.47170	-346.88130	72.32432	-689.34706	-151.55706	40.17632	-599.10624	-113.57311	64.71334	-652.89306	-242.25091	608.45033	-1114.20471	-207.48674	416.02987	-1122.61085	-294.80544	116.13091	-1160.58408	-349.96954	74.69097	-1102.50263	-150.70106	31.73695	-1194.63201	-112.38943	65.37855	-1136.41503	-238.40792	587.37685	-789.56002	-253.74725	128.35145	-727.65236	-235.64244	580.27107	-993.51387	-252.03366	125.71155	-1068.89520	-218.08380	351.90033	-655.09895	-270.18090	472.68155	-621.57468	-284.64008	362.36623	-606.07860	-278.71548	434.99082	-1170.43701	-293.60232	315.88744	-1169.77814	-136.50311	895.39831	-678.02675	-140.43556	784.83509	-671.36283	-204.11808	763.84710	-657.63151	-248.02641	901.34989	-695.23707	-253.61991	783.07453	-676.51929	-142.05350	893.19004	-1091.40402	-159.80585	761.19684	-1102.77622	-247.38050	914.03904	-1099.43101	-266.04367	776.45329	-1113.49562	-70.62853	1170.70318	-762.65200	-262.86900	1205.23530	-829.80646	-106.33950	1163.25373	-1034.27680	-273.86801	1208.38404	-921.29067	-266.66338	1679.61879	-891.35258	-184.34328	1658.94817	-719.72106	-220.16968	1666.66596	-1068.02696	-106.61724	1629.09961	-873.42129	-110.35962	1630.93139	-924.33137	-187.71590	1392.33907	-636.55264	-269.62054	1277.86396	-671.83071	-262.79337	1302.97646	-603.41639	-185.94365	1110.03403	-550.95716	-158.34455	1017.72084	-539.30378	-192.84606	1019.00044	-521.44430	-198.32848	1374.32676	-1136.59005	-276.02637	1295.22476	-1086.89229	-263.10794	1294.99022	-1160.86919	-183.94067	1108.87270	-1207.12438	-154.40064	1032.42031	-1207.66374	-183.61857	1033.46263	-1228.35814	-154.88832	1077.23964	-789.02627	-185.36094	1076.96134	-984.13724	-146.11921	1081.14877	-795.98682	-167.69830	1087.32632	-975.47067	
